{
	"asset":{
		"generator":"Khronos glTF Blender I/O v3.6.27",
		"version":"2.0"
	},
	"extensionsUsed":[
		"KHR_materials_specular",
		"KHR_materials_ior"
	],
	"scene":0,
	"scenes":[
		{
			"name":"Scene",
			"nodes":[
				0,
				1,
				2,
				3
			]
		}
	],
	"nodes":[
		{
			"mesh":0,
			"name":"Cube.107",
			"scale":[
				0.665772557258606,
				1,
				1
			]
		},
		{
			"mesh":1,
			"name":"Curve.041",
			"rotation":[
				0.5,
				0.5,
				-0.5,
				0.5
			],
			"scale":[
				1.8841876983642578,
				1.8841876983642578,
				1.8841876983642578
			],
			"translation":[
				0.3273095190525055,
				-0.6788797378540039,
				0.525931179523468
			]
		},
		{
			"mesh":2,
			"name":"Curve.042",
			"rotation":[
				0.5,
				0.5,
				-0.5,
				0.5
			],
			"scale":[
				1.8841876983642578,
				1.8841876983642578,
				1.8841876983642578
			],
			"translation":[
				0.33697500824928284,
				-0.66843581199646,
				0.526138961315155
			]
		},
		{
			"mesh":3,
			"name":"Curve.043",
			"rotation":[
				0.5,
				0.5,
				-0.5,
				0.5
			],
			"scale":[
				1.8841876983642578,
				1.8841876983642578,
				1.8841876983642578
			],
			"translation":[
				0.485611230134964,
				-0.6780305504798889,
				0.5460980534553528
			]
		}
	],
	"materials":[
		{
			"doubleSided":true,
			"extensions":{
				"KHR_materials_specular":{
					"specularColorFactor":[
						0.4249965630508046,
						0.4249965630508046,
						0.4249965630508046
					]
				},
				"KHR_materials_ior":{
					"ior":1.4500000476837158
				}
			},
			"name":"base_0",
			"pbrMetallicRoughness":{
				"baseColorFactor":[
					0.008229945786297321,
					0.008229945786297321,
					0.008229945786297321,
					1
				],
				"metallicFactor":0,
				"roughnessFactor":0.356436163187027
			}
		},
		{
			"doubleSided":true,
			"extensions":{
				"KHR_materials_specular":{
					"specularColorFactor":[
						0.4418950423999857,
						0.4418950423999857,
						0.4418950423999857
					]
				},
				"KHR_materials_ior":{
					"ior":1.4500000476837158
				}
			},
			"name":"SVGMat.072",
			"pbrMetallicRoughness":{
				"baseColorFactor":[
					0.7605247497558594,
					0.031895872205495834,
					0.038204386830329895,
					1
				],
				"metallicFactor":0,
				"roughnessFactor":0.3560885787010193
			}
		},
		{
			"doubleSided":true,
			"extensions":{
				"KHR_materials_specular":{
					"specularColorFactor":[
						0.4418950423999857,
						0.4418950423999857,
						0.4418950423999857
					]
				},
				"KHR_materials_ior":{
					"ior":1.4500000476837158
				}
			},
			"name":"SVGMat.075",
			"pbrMetallicRoughness":{
				"baseColorFactor":[
					0.4620770215988159,
					0.014201246201992035,
					0.018461236730217934,
					1
				],
				"metallicFactor":0,
				"roughnessFactor":0.3560885787010193
			}
		},
		{
			"doubleSided":true,
			"name":"SVGMat.074",
			"pbrMetallicRoughness":{
				"baseColorFactor":[
					1,
					1,
					1,
					1
				],
				"metallicFactor":0,
				"roughnessFactor":0.4000000059604645
			}
		}
	],
	"meshes":[
		{
			"name":"Cube.128",
			"primitives":[
				{
					"attributes":{
						"POSITION":0,
						"NORMAL":1,
						"TEXCOORD_0":2
					},
					"indices":3,
					"material":0
				}
			]
		},
		{
			"name":"Curve.041",
			"primitives":[
				{
					"attributes":{
						"POSITION":4,
						"NORMAL":5,
						"TEXCOORD_0":6
					},
					"indices":7,
					"material":1
				}
			]
		},
		{
			"name":"Curve.043",
			"primitives":[
				{
					"attributes":{
						"POSITION":8,
						"NORMAL":9,
						"TEXCOORD_0":10
					},
					"indices":11,
					"material":2
				}
			]
		},
		{
			"name":"Curve.045",
			"primitives":[
				{
					"attributes":{
						"POSITION":12,
						"NORMAL":13,
						"TEXCOORD_0":14
					},
					"indices":15,
					"material":3
				}
			]
		}
	],
	"accessors":[
		{
			"bufferView":0,
			"componentType":5126,
			"count":8064,
			"max":[
				0.21214167773723602,
				1,
				1
			],
			"min":[
				-0.21214167773723602,
				-1,
				-1
			],
			"type":"VEC3"
		},
		{
			"bufferView":1,
			"componentType":5126,
			"count":8064,
			"type":"VEC3"
		},
		{
			"bufferView":2,
			"componentType":5126,
			"count":8064,
			"type":"VEC2"
		},
		{
			"bufferView":3,
			"componentType":5123,
			"count":12276,
			"type":"SCALAR"
		},
		{
			"bufferView":4,
			"componentType":5126,
			"count":530,
			"max":[
				0.31892532110214233,
				0.04600000008940697,
				-6.054900586605072e-05
			],
			"min":[
				-0.007316114380955696,
				-0.04600000008940697,
				-0.7154708504676819
			],
			"type":"VEC3"
		},
		{
			"bufferView":5,
			"componentType":5126,
			"count":530,
			"type":"VEC3"
		},
		{
			"bufferView":6,
			"componentType":5126,
			"count":530,
			"type":"VEC2"
		},
		{
			"bufferView":7,
			"componentType":5123,
			"count":2652,
			"type":"SCALAR"
		},
		{
			"bufferView":8,
			"componentType":5126,
			"count":108,
			"max":[
				0.6694136261940002,
				0.05100000277161598,
				0.005407586228102446
			],
			"min":[
				0.31690287590026855,
				-0.05100000277161598,
				-0.7100526094436646
			],
			"type":"VEC3"
		},
		{
			"bufferView":9,
			"componentType":5126,
			"count":108,
			"type":"VEC3"
		},
		{
			"bufferView":10,
			"componentType":5126,
			"count":108,
			"type":"VEC2"
		},
		{
			"bufferView":11,
			"componentType":5123,
			"count":468,
			"type":"SCALAR"
		},
		{
			"bufferView":12,
			"componentType":5126,
			"count":460,
			"max":[
				0.5514208674430847,
				0.061000000685453415,
				-0.1608806848526001
			],
			"min":[
				0.11287333071231842,
				-0.061000000685453415,
				-0.6384785175323486
			],
			"type":"VEC3"
		},
		{
			"bufferView":13,
			"componentType":5126,
			"count":460,
			"type":"VEC3"
		},
		{
			"bufferView":14,
			"componentType":5126,
			"count":460,
			"type":"VEC2"
		},
		{
			"bufferView":15,
			"componentType":5123,
			"count":720,
			"type":"SCALAR"
		}
	],
	"bufferViews":[
		{
			"buffer":0,
			"byteLength":96768,
			"byteOffset":0,
			"target":34962
		},
		{
			"buffer":0,
			"byteLength":96768,
			"byteOffset":96768,
			"target":34962
		},
		{
			"buffer":0,
			"byteLength":64512,
			"byteOffset":193536,
			"target":34962
		},
		{
			"buffer":0,
			"byteLength":24552,
			"byteOffset":258048,
			"target":34963
		},
		{
			"buffer":0,
			"byteLength":6360,
			"byteOffset":282600,
			"target":34962
		},
		{
			"buffer":0,
			"byteLength":6360,
			"byteOffset":288960,
			"target":34962
		},
		{
			"buffer":0,
			"byteLength":4240,
			"byteOffset":295320,
			"target":34962
		},
		{
			"buffer":0,
			"byteLength":5304,
			"byteOffset":299560,
			"target":34963
		},
		{
			"buffer":0,
			"byteLength":1296,
			"byteOffset":304864,
			"target":34962
		},
		{
			"buffer":0,
			"byteLength":1296,
			"byteOffset":306160,
			"target":34962
		},
		{
			"buffer":0,
			"byteLength":864,
			"byteOffset":307456,
			"target":34962
		},
		{
			"buffer":0,
			"byteLength":936,
			"byteOffset":308320,
			"target":34963
		},
		{
			"buffer":0,
			"byteLength":5520,
			"byteOffset":309256,
			"target":34962
		},
		{
			"buffer":0,
			"byteLength":5520,
			"byteOffset":314776,
			"target":34962
		},
		{
			"buffer":0,
			"byteLength":3680,
			"byteOffset":320296,
			"target":34962
		},
		{
			"buffer":0,
			"byteLength":1440,
			"byteOffset":323976,
			"target":34963
		}
	],
	"buffers":[
		{
			"byteLength":325416,
			"uri":"data:application/octet-stream;base64,"
		}
	]
}
