{
	"asset":{
		"generator":"Khronos glTF Blender I/O v3.6.27",
		"version":"2.0"
	},
	"scene":0,
	"scenes":[
		{
			"name":"Scene",
			"nodes":[
				0,
				1
			]
		}
	],
	"nodes":[
		{
			"mesh":0,
			"name":"Curve",
			"rotation":[
				0.45373156666755676,
				0.5423354506492615,
				-0.453731507062912,
				0.5423355102539062
			],
			"translation":[
				-0.07522350549697876,
				0.15232497453689575,
				0.1276155263185501
			]
		},
		{
			"mesh":1,
			"name":"Curve.001",
			"rotation":[
				0.45373156666755676,
				0.5423354506492615,
				-0.453731507062912,
				0.5423355102539062
			],
			"translation":[
				-0.05540426820516586,
				0.1566021889448166,
				0.12152983993291855
			]
		}
	],
	"materials":[
		{
			"doubleSided":true,
			"name":"SVGMat.007",
			"pbrMetallicRoughness":{
				"baseColorFactor":[
					0.20507873594760895,
					0.005605391692370176,
					0.9386857151985168,
					1
				],
				"metallicFactor":0,
				"roughnessFactor":0.4000000059604645
			}
		},
		{
			"doubleSided":true,
			"name":"SVGMat.008",
			"pbrMetallicRoughness":{
				"baseColorFactor":[
					0.9646862745285034,
					0.9473065137863159,
					0.9911020994186401,
					1
				],
				"metallicFactor":0,
				"roughnessFactor":0.4000000059604645
			}
		}
	],
	"meshes":[
		{
			"name":"Curve.003",
			"primitives":[
				{
					"attributes":{
						"POSITION":0,
						"NORMAL":1,
						"TEXCOORD_0":2
					},
					"indices":3,
					"material":0
				}
			]
		},
		{
			"name":"Curve.004",
			"primitives":[
				{
					"attributes":{
						"POSITION":4,
						"NORMAL":5,
						"TEXCOORD_0":6
					},
					"indices":7,
					"material":1
				}
			]
		}
	],
	"accessors":[
		{
			"bufferView":0,
			"componentType":5126,
			"count":3288,
			"max":[
				0.07708312571048737,
				0.016999999061226845,
				0.058570828288793564
			],
			"min":[
				-0.07141749560832977,
				-0.016999999061226845,
				-0.060563843697309494
			],
			"type":"VEC3"
		},
		{
			"bufferView":1,
			"componentType":5126,
			"count":3288,
			"type":"VEC3"
		},
		{
			"bufferView":2,
			"componentType":5126,
			"count":3288,
			"type":"VEC2"
		},
		{
			"bufferView":3,
			"componentType":5123,
			"count":16836,
			"type":"SCALAR"
		},
		{
			"bufferView":4,
			"componentType":5126,
			"count":3690,
			"max":[
				0.022837283089756966,
				0.006000000052154064,
				0.03146883845329285
			],
			"min":[
				-0.02604459784924984,
				-0.006000000052154064,
				-0.03208228200674057
			],
			"type":"VEC3"
		},
		{
			"bufferView":5,
			"componentType":5126,
			"count":3690,
			"type":"VEC3"
		},
		{
			"bufferView":6,
			"componentType":5126,
			"count":3690,
			"type":"VEC2"
		},
		{
			"bufferView":7,
			"componentType":5123,
			"count":18804,
			"type":"SCALAR"
		}
	],
	"bufferViews":[
		{
			"buffer":0,
			"byteLength":39456,
			"byteOffset":0,
			"target":34962
		},
		{
			"buffer":0,
			"byteLength":39456,
			"byteOffset":39456,
			"target":34962
		},
		{
			"buffer":0,
			"byteLength":26304,
			"byteOffset":78912,
			"target":34962
		},
		{
			"buffer":0,
			"byteLength":33672,
			"byteOffset":105216,
			"target":34963
		},
		{
			"buffer":0,
			"byteLength":44280,
			"byteOffset":138888,
			"target":34962
		},
		{
			"buffer":0,
			"byteLength":44280,
			"byteOffset":183168,
			"target":34962
		},
		{
			"buffer":0,
			"byteLength":29520,
			"byteOffset":227448,
			"target":34962
		},
		{
			"buffer":0,
			"byteLength":37608,
			"byteOffset":256968,
			"target":34963
		}
	],
	"buffers":[
		{
			"byteLength":294576,
			"uri":"data:application/octet-stream;base64,"
		}
	]
}
