{
	"asset":{
		"generator":"Khronos glTF Blender I/O v3.6.27",
		"version":"2.0"
	},
	"extensionsUsed":[
		"KHR_materials_specular",
		"KHR_materials_ior"
	],
	"scene":0,
	"scenes":[
		{
			"name":"Scene",
			"nodes":[
				0,
				1,
				2,
				3
			]
		}
	],
	"nodes":[
		{
			"mesh":0,
			"name":"Cube.015",
			"scale":[
				0.665772557258606,
				1,
				1
			]
		},
		{
			"mesh":1,
			"name":"Cube.016",
			"translation":[
				0.3116568326950073,
				0.0017590820789337158,
				-0.0014942139387130737
			]
		},
		{
			"mesh":2,
			"name":"Curve.017",
			"rotation":[
				0.5,
				0.5,
				-0.5,
				0.5
			],
			"scale":[
				16.640405654907227,
				16.640405654907227,
				16.640405654907227
			],
			"translation":[
				0.5655295848846436,
				-0.0006697401404380798,
				-0.3555743992328644
			]
		},
		{
			"mesh":3,
			"name":"Text.001",
			"rotation":[
				0.5,
				0.5,
				-0.5,
				0.4999999701976776
			],
			"scale":[
				0.47071385383605957,
				0.47071385383605957,
				0.47071385383605957
			],
			"translation":[
				0.5660998821258545,
				-0.0884798988699913,
				-0.28001925349235535
			]
		}
	],
	"materials":[
		{
			"doubleSided":true,
			"extensions":{
				"KHR_materials_specular":{
					"specularColorFactor":[
						0.4249965630508046,
						0.4249965630508046,
						0.4249965630508046
					]
				},
				"KHR_materials_ior":{
					"ior":1.4500000476837158
				}
			},
			"name":"white",
			"pbrMetallicRoughness":{
				"baseColorFactor":[
					0.9999987483024597,
					0.999998927116394,
					1,
					1
				],
				"metallicFactor":0,
				"roughnessFactor":0.356436163187027
			}
		},
		{
			"doubleSided":true,
			"extensions":{
				"KHR_materials_specular":{
					"specularColorFactor":[
						0.4170964622054337,
						0.4170964622054337,
						0.4170964622054337
					]
				},
				"KHR_materials_ior":{
					"ior":1.4500000476837158
				}
			},
			"name":"Material.007",
			"pbrMetallicRoughness":{
				"baseColorFactor":[
					0.13013587892055511,
					0.3231429159641266,
					0.6444796919822693,
					1
				],
				"metallicFactor":0,
				"roughnessFactor":0.32608693838119507
			}
		}
	],
	"meshes":[
		{
			"name":"Cube.012",
			"primitives":[
				{
					"attributes":{
						"POSITION":0,
						"NORMAL":1,
						"TEXCOORD_0":2
					},
					"indices":3,
					"material":0
				}
			]
		},
		{
			"name":"Cube.016",
			"primitives":[
				{
					"attributes":{
						"POSITION":4,
						"NORMAL":5,
						"TEXCOORD_0":6
					},
					"indices":7,
					"material":1
				}
			]
		},
		{
			"name":"Curve.011",
			"primitives":[
				{
					"attributes":{
						"POSITION":8,
						"NORMAL":9,
						"TEXCOORD_0":10
					},
					"indices":11,
					"material":0
				}
			]
		},
		{
			"name":"Text.003",
			"primitives":[
				{
					"attributes":{
						"POSITION":12,
						"NORMAL":13,
						"TEXCOORD_0":14
					},
					"indices":15,
					"material":0
				}
			]
		}
	],
	"accessors":[
		{
			"bufferView":0,
			"componentType":5126,
			"count":2934,
			"max":[
				0.21214167773723602,
				1,
				1
			],
			"min":[
				-0.21214167773723602,
				-1,
				-1
			],
			"type":"VEC3"
		},
		{
			"bufferView":1,
			"componentType":5126,
			"count":2934,
			"type":"VEC3"
		},
		{
			"bufferView":2,
			"componentType":5126,
			"count":2934,
			"type":"VEC2"
		},
		{
			"bufferView":3,
			"componentType":5123,
			"count":12276,
			"type":"SCALAR"
		},
		{
			"bufferView":4,
			"componentType":5126,
			"count":106,
			"max":[
				0.10243461281061172,
				0.8034902215003967,
				0.7318651080131531
			],
			"min":[
				-0.10243461281061172,
				-0.8008882999420166,
				-0.7118297219276428
			],
			"type":"VEC3"
		},
		{
			"bufferView":5,
			"componentType":5126,
			"count":106,
			"type":"VEC3"
		},
		{
			"bufferView":6,
			"componentType":5126,
			"count":106,
			"type":"VEC2"
		},
		{
			"bufferView":7,
			"componentType":5123,
			"count":336,
			"type":"SCALAR"
		},
		{
			"bufferView":8,
			"componentType":5126,
			"count":482,
			"max":[
				0.0031498000025749207,
				0.004000000189989805,
				0.02878130041062832
			],
			"min":[
				-0.050567783415317535,
				-0.004000000189989805,
				-0.028781041502952576
			],
			"type":"VEC3"
		},
		{
			"bufferView":9,
			"componentType":5126,
			"count":482,
			"type":"VEC3"
		},
		{
			"bufferView":10,
			"componentType":5126,
			"count":482,
			"type":"VEC2"
		},
		{
			"bufferView":11,
			"componentType":5123,
			"count":1428,
			"type":"SCALAR"
		},
		{
			"bufferView":12,
			"componentType":5126,
			"count":108,
			"max":[
				1.1119999885559082,
				0.04000000283122063,
				-0.11700000613927841
			],
			"min":[
				0.0560000017285347,
				-0.04000000283122063,
				-0.5890000462532043
			],
			"type":"VEC3"
		},
		{
			"bufferView":13,
			"componentType":5126,
			"count":108,
			"type":"VEC3"
		},
		{
			"bufferView":14,
			"componentType":5126,
			"count":108,
			"type":"VEC2"
		},
		{
			"bufferView":15,
			"componentType":5123,
			"count":264,
			"type":"SCALAR"
		}
	],
	"bufferViews":[
		{
			"buffer":0,
			"byteLength":35208,
			"byteOffset":0,
			"target":34962
		},
		{
			"buffer":0,
			"byteLength":35208,
			"byteOffset":35208,
			"target":34962
		},
		{
			"buffer":0,
			"byteLength":23472,
			"byteOffset":70416,
			"target":34962
		},
		{
			"buffer":0,
			"byteLength":24552,
			"byteOffset":93888,
			"target":34963
		},
		{
			"buffer":0,
			"byteLength":1272,
			"byteOffset":118440,
			"target":34962
		},
		{
			"buffer":0,
			"byteLength":1272,
			"byteOffset":119712,
			"target":34962
		},
		{
			"buffer":0,
			"byteLength":848,
			"byteOffset":120984,
			"target":34962
		},
		{
			"buffer":0,
			"byteLength":672,
			"byteOffset":121832,
			"target":34963
		},
		{
			"buffer":0,
			"byteLength":5784,
			"byteOffset":122504,
			"target":34962
		},
		{
			"buffer":0,
			"byteLength":5784,
			"byteOffset":128288,
			"target":34962
		},
		{
			"buffer":0,
			"byteLength":3856,
			"byteOffset":134072,
			"target":34962
		},
		{
			"buffer":0,
			"byteLength":2856,
			"byteOffset":137928,
			"target":34963
		},
		{
			"buffer":0,
			"byteLength":1296,
			"byteOffset":140784,
			"target":34962
		},
		{
			"buffer":0,
			"byteLength":1296,
			"byteOffset":142080,
			"target":34962
		},
		{
			"buffer":0,
			"byteLength":864,
			"byteOffset":143376,
			"target":34962
		},
		{
			"buffer":0,
			"byteLength":528,
			"byteOffset":144240,
			"target":34963
		}
	],
	"buffers":[
		{
			"byteLength":144768,
			"uri":"data:application/octet-stream;base64,"
		}
	]
}
