{
	"asset":{
		"generator":"Khronos glTF Blender I/O v3.6.27",
		"version":"2.0"
	},
	"scene":0,
	"scenes":[
		{
			"name":"Scene",
			"nodes":[
				0,
				1,
				2,
				3,
				4
			]
		}
	],
	"nodes":[
		{
			"mesh":0,
			"name":"Cube",
			"translation":[
				0.8947939872741699,
				0.604323148727417,
				-1.0001230239868164
			]
		},
		{
			"mesh":1,
			"name":"Icosphere",
			"rotation":[
				0,
				0,
				-0.4253944158554077,
				0.90500807762146
			],
			"scale":[
				1.2488272190093994,
				1.2488272190093994,
				1.2488272190093994
			],
			"translation":[
				-0.0025606155395507812,
				0.5839196443557739,
				1.10682213306427
			]
		},
		{
			"mesh":2,
			"name":"Text",
			"translation":[
				0.48469066619873047,
				0.604323148727417,
				-1.0001230239868164
			]
		},
		{
			"mesh":3,
			"name":"Torus",
			"rotation":[
				-0.23034124076366425,
				-0.21269099414348602,
				-0.6685152649879456,
				0.674383282661438
			],
			"scale":[
				0.5427843928337097,
				0.5427843332290649,
				0.5427843332290649
			],
			"translation":[
				0.531123161315918,
				0.7150485515594482,
				-1.015444278717041
			]
		},
		{
			"mesh":4,
			"name":"Cube.001",
			"translation":[
				1.3807778358459473,
				1.5587830543518066,
				-1.895527720451355
			]
		}
	],
	"materials":[
		{
			"doubleSided":true,
			"name":"Material.004",
			"pbrMetallicRoughness":{
				"baseColorFactor":[
					0.800000011920929,
					0.800000011920929,
					0.800000011920929,
					1
				],
				"metallicFactor":0,
				"roughnessFactor":0.5
			}
		},
		{
			"doubleSided":true,
			"name":"Material.003",
			"pbrMetallicRoughness":{
				"baseColorFactor":[
					0.018812870606780052,
					0.8000000715255737,
					0.004032456781715155,
					1
				],
				"metallicFactor":0,
				"roughnessFactor":0.5
			}
		},
		{
			"doubleSided":true,
			"name":"Material",
			"pbrMetallicRoughness":{
				"baseColorFactor":[
					0.800000011920929,
					0.800000011920929,
					0.800000011920929,
					1
				],
				"metallicFactor":0,
				"roughnessFactor":0.5
			}
		},
		{
			"doubleSided":true,
			"name":"Material.001",
			"pbrMetallicRoughness":{
				"baseColorFactor":[
					0.800000011920929,
					0.800000011920929,
					0.800000011920929,
					1
				],
				"metallicFactor":0,
				"roughnessFactor":0.5
			}
		}
	],
	"meshes":[
		{
			"name":"Cube.001",
			"primitives":[
				{
					"attributes":{
						"POSITION":0,
						"NORMAL":1,
						"TEXCOORD_0":2
					},
					"indices":3,
					"material":0
				}
			]
		},
		{
			"name":"Icosphere",
			"primitives":[
				{
					"attributes":{
						"POSITION":4,
						"NORMAL":5,
						"TEXCOORD_0":6
					},
					"indices":7,
					"material":1
				}
			]
		},
		{
			"name":"Text",
			"primitives":[
				{
					"attributes":{
						"POSITION":8,
						"NORMAL":9,
						"TEXCOORD_0":10
					},
					"indices":11
				}
			]
		},
		{
			"name":"Torus",
			"primitives":[
				{
					"attributes":{
						"POSITION":12,
						"NORMAL":13,
						"TEXCOORD_0":14
					},
					"indices":15,
					"material":2
				}
			]
		},
		{
			"name":"Cube",
			"primitives":[
				{
					"attributes":{
						"POSITION":16,
						"NORMAL":17,
						"TEXCOORD_0":18
					},
					"indices":19,
					"material":3
				}
			]
		}
	],
	"accessors":[
		{
			"bufferView":0,
			"componentType":5126,
			"count":24,
			"max":[
				-0.543716549873352,
				1,
				1
			],
			"min":[
				-1,
				-1,
				-1
			],
			"type":"VEC3"
		},
		{
			"bufferView":1,
			"componentType":5126,
			"count":24,
			"type":"VEC3"
		},
		{
			"bufferView":2,
			"componentType":5126,
			"count":24,
			"type":"VEC2"
		},
		{
			"bufferView":3,
			"componentType":5123,
			"count":36,
			"type":"SCALAR"
		},
		{
			"bufferView":4,
			"componentType":5126,
			"count":6,
			"max":[
				0.6794476509094238,
				0.8061832189559937,
				-0.9863543510437012
			],
			"min":[
				-0.3449009656906128,
				-0.09455114603042603,
				-2.40472412109375
			],
			"type":"VEC3"
		},
		{
			"bufferView":5,
			"componentType":5126,
			"count":6,
			"type":"VEC3"
		},
		{
			"bufferView":6,
			"componentType":5126,
			"count":6,
			"type":"VEC2"
		},
		{
			"bufferView":7,
			"componentType":5123,
			"count":12,
			"type":"SCALAR"
		},
		{
			"bufferView":8,
			"componentType":5126,
			"count":512,
			"max":[
				0.7780000567436218,
				0,
				0.009000000543892384
			],
			"min":[
				0.04500000178813934,
				0,
				-0.6910000443458557
			],
			"type":"VEC3"
		},
		{
			"bufferView":9,
			"componentType":5126,
			"count":512,
			"type":"VEC3"
		},
		{
			"bufferView":10,
			"componentType":5126,
			"count":512,
			"type":"VEC2"
		},
		{
			"bufferView":11,
			"componentType":5123,
			"count":1536,
			"type":"SCALAR"
		},
		{
			"bufferView":12,
			"componentType":5126,
			"count":1920,
			"max":[
				1.25,
				0.25,
				1.25
			],
			"min":[
				-1.25,
				-0.25,
				-1.25
			],
			"type":"VEC3"
		},
		{
			"bufferView":13,
			"componentType":5126,
			"count":1920,
			"type":"VEC3"
		},
		{
			"bufferView":14,
			"componentType":5126,
			"count":1920,
			"type":"VEC2"
		},
		{
			"bufferView":15,
			"componentType":5123,
			"count":2880,
			"type":"SCALAR"
		},
		{
			"bufferView":16,
			"componentType":5126,
			"count":136,
			"max":[
				-0.6955053806304932,
				-0.15164077281951904,
				1
			],
			"min":[
				-1,
				-1,
				0.762076735496521
			],
			"type":"VEC3"
		},
		{
			"bufferView":17,
			"componentType":5126,
			"count":136,
			"type":"VEC3"
		},
		{
			"bufferView":18,
			"componentType":5126,
			"count":136,
			"type":"VEC2"
		},
		{
			"bufferView":19,
			"componentType":5123,
			"count":204,
			"type":"SCALAR"
		}
	],
	"bufferViews":[
		{
			"buffer":0,
			"byteLength":288,
			"byteOffset":0,
			"target":34962
		},
		{
			"buffer":0,
			"byteLength":288,
			"byteOffset":288,
			"target":34962
		},
		{
			"buffer":0,
			"byteLength":192,
			"byteOffset":576,
			"target":34962
		},
		{
			"buffer":0,
			"byteLength":72,
			"byteOffset":768,
			"target":34963
		},
		{
			"buffer":0,
			"byteLength":72,
			"byteOffset":840,
			"target":34962
		},
		{
			"buffer":0,
			"byteLength":72,
			"byteOffset":912,
			"target":34962
		},
		{
			"buffer":0,
			"byteLength":48,
			"byteOffset":984,
			"target":34962
		},
		{
			"buffer":0,
			"byteLength":24,
			"byteOffset":1032,
			"target":34963
		},
		{
			"buffer":0,
			"byteLength":6144,
			"byteOffset":1056,
			"target":34962
		},
		{
			"buffer":0,
			"byteLength":6144,
			"byteOffset":7200,
			"target":34962
		},
		{
			"buffer":0,
			"byteLength":4096,
			"byteOffset":13344,
			"target":34962
		},
		{
			"buffer":0,
			"byteLength":3072,
			"byteOffset":17440,
			"target":34963
		},
		{
			"buffer":0,
			"byteLength":23040,
			"byteOffset":20512,
			"target":34962
		},
		{
			"buffer":0,
			"byteLength":23040,
			"byteOffset":43552,
			"target":34962
		},
		{
			"buffer":0,
			"byteLength":15360,
			"byteOffset":66592,
			"target":34962
		},
		{
			"buffer":0,
			"byteLength":5760,
			"byteOffset":81952,
			"target":34963
		},
		{
			"buffer":0,
			"byteLength":1632,
			"byteOffset":87712,
			"target":34962
		},
		{
			"buffer":0,
			"byteLength":1632,
			"byteOffset":89344,
			"target":34962
		},
		{
			"buffer":0,
			"byteLength":1088,
			"byteOffset":90976,
			"target":34962
		},
		{
			"buffer":0,
			"byteLength":408,
			"byteOffset":92064,
			"target":34963
		}
	],
	"buffers":[
		{
			"byteLength":92472,
			"uri":"data:application/octet-stream;base64,"
		}
	]
}
