{
	"asset":{
		"generator":"Khronos glTF Blender I/O v3.6.27",
		"version":"2.0"
	},
	"scene":0,
	"scenes":[
		{
			"name":"Scene",
			"nodes":[
				0,
				1,
				2
			]
		}
	],
	"nodes":[
		{
			"mesh":0,
			"name":"Cube",
			"rotation":[
				1,
				0,
				0,
				0
			],
			"scale":[
				-0.23132559657096863,
				-0.8619669675827026,
				-0.8619669675827026
			],
			"translation":[
				-0.9726480841636658,
				0,
				-0.5411655306816101
			]
		},
		{
			"mesh":1,
			"name":"Text",
			"rotation":[
				0.4980807602405548,
				0.4939195513725281,
				-0.5042325258255005,
				0.5036951303482056
			],
			"scale":[
				2.1256468296051025,
				2.1256470680236816,
				2.1256468296051025
			],
			"translation":[
				-0.7183338403701782,
				-0.7747811079025269,
				0.31356483697891235
			]
		},
		{
			"mesh":2,
			"name":"Text.001",
			"rotation":[
				0.5076101422309875,
				0.49176618456840515,
				-0.4959120452404022,
				0.5045486092567444
			],
			"translation":[
				-0.7161658406257629,
				-0.7594742774963379,
				-0.654569149017334
			]
		}
	],
	"materials":[
		{
			"doubleSided":true,
			"name":"Material.001",
			"pbrMetallicRoughness":{
				"baseColorFactor":[
					0.037361036986112595,
					0.01701349765062332,
					0.8000000715255737,
					1
				],
				"metallicFactor":0,
				"roughnessFactor":0.5
			}
		},
		{
			"doubleSided":true,
			"name":"Material",
			"pbrMetallicRoughness":{
				"metallicFactor":0,
				"roughnessFactor":0.5
			}
		},
		{
			"doubleSided":true,
			"name":"Material.002",
			"pbrMetallicRoughness":{
				"metallicFactor":0,
				"roughnessFactor":0.5
			}
		}
	],
	"meshes":[
		{
			"name":"Cube.001",
			"primitives":[
				{
					"attributes":{
						"COLOR_0":0,
						"POSITION":1,
						"NORMAL":2,
						"TEXCOORD_0":3
					},
					"indices":4,
					"material":0
				}
			]
		},
		{
			"name":"Text",
			"primitives":[
				{
					"attributes":{
						"POSITION":5,
						"NORMAL":6,
						"TEXCOORD_0":7
					},
					"indices":8,
					"material":1
				}
			]
		},
		{
			"name":"Text.002",
			"primitives":[
				{
					"attributes":{
						"POSITION":9,
						"NORMAL":10,
						"TEXCOORD_0":11
					},
					"indices":12,
					"material":2
				}
			]
		}
	],
	"accessors":[
		{
			"bufferView":0,
			"componentType":5123,
			"count":24,
			"normalized":true,
			"type":"VEC4"
		},
		{
			"bufferView":1,
			"componentType":5126,
			"count":24,
			"max":[
				1,
				1,
				1
			],
			"min":[
				-1,
				-1,
				-1
			],
			"type":"VEC3"
		},
		{
			"bufferView":2,
			"componentType":5126,
			"count":24,
			"type":"VEC3"
		},
		{
			"bufferView":3,
			"componentType":5126,
			"count":24,
			"type":"VEC2"
		},
		{
			"bufferView":4,
			"componentType":5123,
			"count":36,
			"type":"SCALAR"
		},
		{
			"bufferView":5,
			"componentType":5126,
			"count":8,
			"max":[
				0.5870000123977661,
				0,
				0
			],
			"min":[
				0.017000000923871994,
				0,
				-0.6820000410079956
			],
			"type":"VEC3"
		},
		{
			"bufferView":6,
			"componentType":5126,
			"count":8,
			"type":"VEC3"
		},
		{
			"bufferView":7,
			"componentType":5126,
			"count":8,
			"type":"VEC2"
		},
		{
			"bufferView":8,
			"componentType":5123,
			"count":18,
			"type":"SCALAR"
		},
		{
			"bufferView":9,
			"componentType":5126,
			"count":122,
			"max":[
				0.42600002884864807,
				0,
				0.009000000543892384
			],
			"min":[
				0.04000000283122063,
				0,
				-0.6910000443458557
			],
			"type":"VEC3"
		},
		{
			"bufferView":10,
			"componentType":5126,
			"count":122,
			"type":"VEC3"
		},
		{
			"bufferView":11,
			"componentType":5126,
			"count":122,
			"type":"VEC2"
		},
		{
			"bufferView":12,
			"componentType":5123,
			"count":360,
			"type":"SCALAR"
		}
	],
	"bufferViews":[
		{
			"buffer":0,
			"byteLength":192,
			"byteOffset":0,
			"target":34962
		},
		{
			"buffer":0,
			"byteLength":288,
			"byteOffset":192,
			"target":34962
		},
		{
			"buffer":0,
			"byteLength":288,
			"byteOffset":480,
			"target":34962
		},
		{
			"buffer":0,
			"byteLength":192,
			"byteOffset":768,
			"target":34962
		},
		{
			"buffer":0,
			"byteLength":72,
			"byteOffset":960,
			"target":34963
		},
		{
			"buffer":0,
			"byteLength":96,
			"byteOffset":1032,
			"target":34962
		},
		{
			"buffer":0,
			"byteLength":96,
			"byteOffset":1128,
			"target":34962
		},
		{
			"buffer":0,
			"byteLength":64,
			"byteOffset":1224,
			"target":34962
		},
		{
			"buffer":0,
			"byteLength":36,
			"byteOffset":1288,
			"target":34963
		},
		{
			"buffer":0,
			"byteLength":1464,
			"byteOffset":1324,
			"target":34962
		},
		{
			"buffer":0,
			"byteLength":1464,
			"byteOffset":2788,
			"target":34962
		},
		{
			"buffer":0,
			"byteLength":976,
			"byteOffset":4252,
			"target":34962
		},
		{
			"buffer":0,
			"byteLength":720,
			"byteOffset":5228,
			"target":34963
		}
	],
	"buffers":[
		{
			"byteLength":5948,
			"uri":"data:application/octet-stream;base64,"
		}
	]
}
